<svg width="800" height="600" viewBox="0 0 800 600" fill="none" xmlns="http://www.w3.org/2000/svg">
  <!-- Background -->
  <rect width="800" height="600" fill="#0A0A0F"/>
  
  <!-- Desk Surface -->
  <rect x="0" y="400" width="800" height="200" fill="#1A1A24"/>
  
  <!-- Monitor -->
  <rect x="250" y="150" width="300" height="200" rx="8" fill="#0F0F17" stroke="#333" stroke-width="2"/>
  <rect x="260" y="160" width="280" height="160" fill="#000"/>
  
  <!-- Monitor Screen Content -->
  <rect x="270" y="170" width="260" height="140" fill="#0F0F17"/>
  
  <!-- Code Editor Interface -->
  <rect x="270" y="170" width="260" height="20" fill="#1E1E2E"/>
  <circle cx="280" cy="180" r="3" fill="#FF5F56"/>
  <circle cx="290" cy="180" r="3" fill="#FFBD2E"/>
  <circle cx="300" cy="180" r="3" fill="#27CA3F"/>
  
  <!-- Code Lines -->
  <rect x="280" y="200" width="80" height="2" fill="#00E0FF"/>
  <rect x="280" y="210" width="120" height="2" fill="#6C63FF"/>
  <rect x="290" y="220" width="100" height="2" fill="#00E0FF"/>
  <rect x="280" y="230" width="140" height="2" fill="#888"/>
  <rect x="290" y="240" width="90" height="2" fill="#6C63FF"/>
  <rect x="280" y="250" width="110" height="2" fill="#888"/>
  <rect x="290" y="260" width="80" height="2" fill="#00E0FF"/>
  <rect x="280" y="270" width="130" height="2" fill="#888"/>
  
  <!-- Monitor Stand -->
  <rect x="380" y="350" width="40" height="50" fill="#2A2A35"/>
  <rect x="360" y="390" width="80" height="10" rx="5" fill="#2A2A35"/>
  
  <!-- MacBook -->
  <ellipse cx="150" cy="420" rx="80" ry="8" fill="#1A1A24"/>
  <rect x="70" y="380" width="160" height="100" rx="8" fill="#2A2A35"/>
  <rect x="80" y="390" width="140" height="80" fill="#000"/>
  <rect x="85" y="395" width="130" height="70" fill="#0F0F17"/>
  
  <!-- MacBook Screen Content -->
  <rect x="90" y="400" width="120" height="60" fill="#0F0F17"/>
  <rect x="90" y="400" width="120" height="8" fill="#1E1E2E"/>
  <circle cx="95" cy="404" r="1.5" fill="#FF5F56"/>
  <circle cx="100" cy="404" r="1.5" fill="#FFBD2E"/>
  <circle cx="105" cy="404" r="1.5" fill="#27CA3F"/>
  
  <!-- Terminal Lines -->
  <rect x="95" y="415" width="60" height="1" fill="#00E0FF"/>
  <rect x="95" y="420" width="80" height="1" fill="#888"/>
  <rect x="95" y="425" width="70" height="1" fill="#6C63FF"/>
  <rect x="95" y="430" width="90" height="1" fill="#888"/>
  <rect x="95" y="435" width="50" height="1" fill="#00E0FF"/>
  
  <!-- Coffee Cup -->
  <ellipse cx="650" cy="430" rx="15" ry="3" fill="#1A1A24"/>
  <rect x="635" y="400" width="30" height="30" rx="15" fill="#3A3A45"/>
  <rect x="640" y="405" width="20" height="20" fill="#4A2C2A"/>
  <path d="M665 410 Q675 410 675 420 Q675 430 665 430" stroke="#3A3A45" stroke-width="3" fill="none"/>
  
  <!-- Steam from coffee -->
  <path d="M645 395 Q647 390 645 385" stroke="#666" stroke-width="1" fill="none" opacity="0.6"/>
  <path d="M650 395 Q652 390 650 385" stroke="#666" stroke-width="1" fill="none" opacity="0.6"/>
  <path d="M655 395 Q657 390 655 385" stroke="#666" stroke-width="1" fill="none" opacity="0.6"/>
  
  <!-- Keyboard -->
  <rect x="300" y="420" width="200" height="60" rx="8" fill="#2A2A35"/>
  <rect x="310" y="430" width="180" height="40" fill="#1A1A24"/>
  
  <!-- Keys -->
  <rect x="315" y="435" width="8" height="8" rx="1" fill="#3A3A45"/>
  <rect x="325" y="435" width="8" height="8" rx="1" fill="#3A3A45"/>
  <rect x="335" y="435" width="8" height="8" rx="1" fill="#3A3A45"/>
  <rect x="345" y="435" width="8" height="8" rx="1" fill="#3A3A45"/>
  <rect x="355" y="435" width="8" height="8" rx="1" fill="#3A3A45"/>
  <rect x="365" y="435" width="8" height="8" rx="1" fill="#3A3A45"/>
  <rect x="375" y="435" width="8" height="8" rx="1" fill="#3A3A45"/>
  <rect x="385" y="435" width="8" height="8" rx="1" fill="#3A3A45"/>
  <rect x="395" y="435" width="8" height="8" rx="1" fill="#3A3A45"/>
  <rect x="405" y="435" width="8" height="8" rx="1" fill="#3A3A45"/>
  <rect x="415" y="435" width="8" height="8" rx="1" fill="#3A3A45"/>
  <rect x="425" y="435" width="8" height="8" rx="1" fill="#3A3A45"/>
  <rect x="435" y="435" width="8" height="8" rx="1" fill="#3A3A45"/>
  <rect x="445" y="435" width="8" height="8" rx="1" fill="#3A3A45"/>
  <rect x="455" y="435" width="8" height="8" rx="1" fill="#3A3A45"/>
  <rect x="465" y="435" width="8" height="8" rx="1" fill="#3A3A45"/>
  <rect x="475" y="435" width="8" height="8" rx="1" fill="#3A3A45"/>
  
  <rect x="315" y="445" width="8" height="8" rx="1" fill="#3A3A45"/>
  <rect x="325" y="445" width="8" height="8" rx="1" fill="#3A3A45"/>
  <rect x="335" y="445" width="8" height="8" rx="1" fill="#3A3A45"/>
  <rect x="345" y="445" width="8" height="8" rx="1" fill="#3A3A45"/>
  <rect x="355" y="445" width="8" height="8" rx="1" fill="#3A3A45"/>
  <rect x="365" y="445" width="8" height="8" rx="1" fill="#3A3A45"/>
  <rect x="375" y="445" width="8" height="8" rx="1" fill="#3A3A45"/>
  <rect x="385" y="445" width="8" height="8" rx="1" fill="#3A3A45"/>
  <rect x="395" y="445" width="8" height="8" rx="1" fill="#3A3A45"/>
  <rect x="405" y="445" width="8" height="8" rx="1" fill="#3A3A45"/>
  <rect x="415" y="445" width="8" height="8" rx="1" fill="#3A3A45"/>
  <rect x="425" y="445" width="8" height="8" rx="1" fill="#3A3A45"/>
  <rect x="435" y="445" width="8" height="8" rx="1" fill="#3A3A45"/>
  <rect x="445" y="445" width="8" height="8" rx="1" fill="#3A3A45"/>
  <rect x="455" y="445" width="8" height="8" rx="1" fill="#3A3A45"/>
  <rect x="465" y="445" width="8" height="8" rx="1" fill="#3A3A45"/>
  <rect x="475" y="445" width="8" height="8" rx="1" fill="#3A3A45"/>
  
  <rect x="325" y="455" width="150" height="8" rx="1" fill="#3A3A45"/>
  
  <!-- Mouse -->
  <ellipse cx="550" cy="450" rx="12" ry="18" fill="#2A2A35"/>
  <rect x="548" y="440" width="4" height="8" fill="#1A1A24"/>
  
  <!-- Ambient lighting -->
  <circle cx="100" cy="100" r="50" fill="url(#blueGlow)" opacity="0.3"/>
  <circle cx="700" cy="200" r="80" fill="url(#cyanGlow)" opacity="0.2"/>
  
  <!-- Gradient definitions -->
  <defs>
    <radialGradient id="blueGlow" cx="50%" cy="50%" r="50%">
      <stop offset="0%" style="stop-color:#00E0FF;stop-opacity:1" />
      <stop offset="100%" style="stop-color:#00E0FF;stop-opacity:0" />
    </radialGradient>
    <radialGradient id="cyanGlow" cx="50%" cy="50%" r="50%">
      <stop offset="0%" style="stop-color:#6C63FF;stop-opacity:1" />
      <stop offset="100%" style="stop-color:#6C63FF;stop-opacity:0" />
    </radialGradient>
  </defs>
</svg>